<?xml version="1.0" encoding="UTF-8" standalone="no"?>
<!-- Created with Inkscape (http://www.inkscape.org/) -->

<svg
   width="210mm"
   height="297mm"
   viewBox="0 0 210 297"
   version="1.1"
   id="svg1"
   inkscape:version="1.4 (e7c3feb100, 2024-10-09)"
   sodipodi:docname="PaperMask.svg"
   xmlns:inkscape="http://www.inkscape.org/namespaces/inkscape"
   xmlns:sodipodi="http://sodipodi.sourceforge.net/DTD/sodipodi-0.dtd"
   xmlns="http://www.w3.org/2000/svg"
   xmlns:svg="http://www.w3.org/2000/svg">
  <sodipodi:namedview
     id="namedview1"
     pagecolor="#000000"
     bordercolor="#000000"
     borderopacity="0.25"
     inkscape:showpageshadow="2"
     inkscape:pageopacity="0.0"
     inkscape:pagecheckerboard="0"
     inkscape:deskcolor="#d1d1d1"
     inkscape:document-units="mm"
     inkscape:zoom="0.77985109"
     inkscape:cx="307.10991"
     inkscape:cy="304.54532"
     inkscape:window-width="1600"
     inkscape:window-height="828"
     inkscape:window-x="0"
     inkscape:window-y="0"
     inkscape:window-maximized="1"
     inkscape:current-layer="layer1" />
  <defs
     id="defs1" />
  <g
     inkscape:label="Layer 1"
     inkscape:groupmode="layer"
     id="layer1">
    <path
       style="fill:#ffffff;fill-rule:evenodd;stroke:#ffffff;stroke-width:1;stroke-opacity:1;fill-opacity:1;opacity:0"
       d="m 14.87399,19.672052 14.394184,-13.4345722 7.197092,15.3537962 6.237481,-6.717286 8.156704,3.358643 h 5.277866 l 5.757675,-4.318255 10.075928,4.318255 4.79806,-10.555735 3.838451,13.914378 5.277866,-3.358643 3.83845,3.838449 3.838448,-11.995153 0.479806,11.515347 5.757675,-7.676898 4.318254,9.116316 3.83845,-7.197092 2.87884,3.358643 1.43941,0.479807 7.6769,-0.959613 9.11632,5.757674 6.23748,-9.596123 21.11147,7.197092 2.87883,-4.798061 9.11632,8.63651 9.11632,-3.838449 19.19225,3.838449 5.27786,-3.358643 2.87884,5.277868 v 252.378034 13.43456 l -9.11632,-5.75767 -11.51535,4.79806 -12.47495,-4.79806 -7.1971,-8.15671 -8.1567,10.55574 -3.35864,-5.27786 -8.63651,8.6365 -10.55574,-6.23747 -11.51535,4.79806 -23.03069,-4.31826 -6.717287,5.75767 -2.39903,-8.1567 -9.116316,6.23747 -0.479806,-5.75765 -8.636511,8.15668 -12.954767,-11.51533 -6.237478,10.55574 -12.954767,-6.7173 -11.995152,0.4798 -4.318255,6.2375 -8.156705,-2.87885 -2.39903,-8.15671 -2.878837,8.63653 V 18.232633 Z"
       id="path1" />
    <path
       style="fill:#ffffff;fill-opacity:1;fill-rule:evenodd;stroke:#000000;stroke-width:1;stroke-opacity:1"
       d="m 9.7160743,17.392972 9.2362677,-5.997576 1.439419,2.758885 3.11874,-3.718498 4.558158,3.478595 8.996365,-2.399031 4.558159,3.958401 3.718497,0.479806 5.277868,-0.479806 2.159127,-0.599758 3.718497,-4.078352 1.439418,3.718498 2.159129,1.55937 2.638933,-2.27908 4.318254,1.079564 2.758887,1.319467 6.717284,-1.55937 4.798063,1.919225 2.638933,-1.439419 5.941581,-0.694741 1.866008,1.696371 6.615848,-1.272278 1.95083,-1.017823 6.36139,1.18746 12.3835,3.47756 4.58021,2.544557 -0.33928,1.187459 2.88383,-5.937298 3.39274,5.428387 5.9373,-3.901653 8.82113,0.848185 6.61585,-3.223104 1.69637,-1.696371 5.93729,5.089112 11.36569,-3.392741 5.76766,2.88383 6.10694,-3.053467 0.84818,-2.035645 8.99077,3.732016 h 7.29439 l 2.54456,4.580201 2.71419,0.678548 V 289.74015 l -6.27657,1.18745 -3.90165,-3.73203 -5.9373,3.56241 -6.10694,-0.16965 -6.44621,-1.18745 0.16964,-3.73203 -6.27657,3.56238 -4.41057,2.88382 -5.76766,-4.07127 -3.39274,2.7142 -5.08911,0.33925 -2.54456,-2.71418 -5.42838,1.866 -8.31222,-0.33927 -2.88383,-1.69638 -3.05347,3.39275 -6.95512,-1.69637 -8.14258,-0.67855 -8.14258,3.56237 -3.05347,-3.90165 -5.598021,1.18748 -5.767662,0.16962 -4.749837,3.90165 -5.25875,-5.9373 -3.053469,1.69638 -3.901651,0.8482 -7.464034,-1.3571 -7.803306,1.18745 -1.866005,1.52672 -5.428388,-3.05345 -4.749839,1.866 -3.392742,1.52673 -6.106935,-2.71418 -4.919475,-0.8482 -0.848185,3.39275 -4.240927,-0.67855 -1.696371,-3.56237 -4.410564,3.732 -4.580202,0.33927 -1.866008,-3.05345 -3.562378,0.84818 -2.2052827,1.52672 V 16.794072 Z"
       id="path2" />
    <path
       style="opacity:1;fill:#ffffff;fill-opacity:1;fill-rule:evenodd;stroke:#ffffff;stroke-width:1;stroke-opacity:1"
       d="m 10.178225,288.38305 2.883831,2.62938 3.47756,-1.44193 3.223104,1.44193 3.307923,-1.10265 1.441916,0.8482 1.696371,-1.27231 1.526735,1.18748 5.513204,-0.16965 3.138287,1.27228 5.76766,-1.18745 3.732016,0.5089 2.035644,0.76337 5.34357,-0.84817 2.459736,0.84817 4.071291,-0.5089 4.410565,-0.67855 0.50891,-1.10265 4.74984,1.7812 3.986469,-1.10265 3.816837,0.59373 3.223103,0.50892 2.629374,-1.01782 1.696371,0.933 7.972943,-0.59373 1.526733,-1.52675 4.580202,1.44193 4.07129,-1.866 2.54456,1.95082 2.45973,1.18745 3.6472,-0.33927 1.95083,-0.16963 0.933,-1.7812 5.9373,1.10265 h 2.79901 l 0.93301,-0.933 2.2901,0.84818 1.44191,0.67855 2.79901,-1.69638 2.37492,0.8482 1.52674,0.25445 3.13828,-0.25445 1.3571,0.59373 5.34357,0.16962 0.42409,0.8482 2.54456,-1.69637 3.2231,0.84817 2.96865,-0.59372 2.20528,0.5089 2.88383,0.76337 3.13829,-1.52672 3.90165,0.33927 2.7142,1.10263 3.64719,-0.5089 2.45974,-1.44193 7.12476,1.7812 2.88383,-0.16965 2.03564,-1.10262 3.22311,-0.25445 0.76337,0.67855 3.13828,-0.0848 1.69637,-0.59372 2.03565,0.84817 3.64719,-1.866 2.54456,-0.8482 V 278.12 H 10.263044 Z"
       id="path4" />
    <path
       style="opacity:1;fill:#ffffff;fill-opacity:1;fill-rule:evenodd;stroke:#ffffff;stroke-width:1;stroke-opacity:1"
       d="m 10.615711,13.854402 5.757673,0.659734 2.518983,-1.259491 2.159127,0.359854 2.518982,-0.05998 6.237479,0.71971 0.719709,-1.619346 7.496972,3.178715 4.798062,-0.83966 4.79806,0.959612 3.058766,-1.439418 3.358642,-0.179928 2.578957,-1.379442 2.698912,1.9792 2.518981,0.779685 2.219103,-1.13954 3.478593,0.299879 3.058766,0.779685 2.39903,-1.919224 1.439418,1.799273 5.457796,-1.13954 3.058763,1.13954 2.998787,-0.179928 1.31947,-0.83966 3.898423,1.439418 1.799273,-0.959612 7.017165,0.179927 5.217897,-0.299879 6.83723,1.319467 3.59855,0.779685 3.83845,1.619346 1.85925,-1.379443 2.03917,-1.379443 3.05877,3.898425 2.15912,-1.859248 h 3.89843 l 3.89842,-0.599758 1.9792,1.439418 16.67327,-1.799273 1.07956,-1.319467 3.17872,2.219104 5.57774,-0.599758 2.99879,-0.359854 1.7393,1.319466 12.05513,-1.55937 3.77847,0.419831 2.39903,-1.079564 2.33906,-0.119952 2.57895,0.839661 8.33664,3.53857 1.85924,0.239904 v 9.416194 H 10.008588 Z"
       id="path5" />
    <path
       style="opacity:1;fill:#ffffff;fill-opacity:1;fill-rule:evenodd;stroke:#ffffff;stroke-width:0.83762;stroke-opacity:1"
       d="m 9.8430484,18.389247 0.4009976,-4.732838 1.190462,3.801377 z"
       id="path6" />
  </g>
</svg>
